<svg version="1.1" xmlns="http://www.w3.org/2000/svg" width="1024" height="1024">
<path d="M0 0 C337.92 0 675.84 0 1024 0 C1024 337.92 1024 675.84 1024 1024 C686.08 1024 348.16 1024 0 1024 C0 686.08 0 348.16 0 0 Z " fill="#FEFEFE" transform="translate(0,0)"/>
<path d="M0 0 C4.279 4.063 7.214 9.132 10.062 14.25 C10.72 15.406 10.72 15.406 11.391 16.586 C15.801 25.686 15.504 38.498 12.895 48.129 C10.798 53.474 8.094 58.92 4.309 63.262 C2.849 65.186 2.849 65.186 3.113 67.562 C4.362 71.098 6.262 74.097 8.25 77.25 C18.149 93.544 27.016 111.359 32.848 129.523 C33.872 132.666 35.017 135.717 36.245 138.784 C42.412 154.332 47.144 171.017 48.773 187.688 C48.912 190.236 48.912 190.236 50.062 192.25 C51.218 191.786 52.374 191.322 53.564 190.844 C57.651 189.315 61.726 188.415 66.031 187.75 C66.775 187.629 67.519 187.508 68.285 187.384 C70.709 186.995 73.136 186.621 75.562 186.25 C76.409 186.119 77.255 185.989 78.127 185.854 C93.915 183.43 109.686 181.555 125.622 180.426 C128.223 180.238 130.823 180.039 133.423 179.84 C165.434 177.427 197.352 176.976 229.438 177 C230.91 177.001 230.91 177.001 232.411 177.001 C238.09 177.004 243.768 177.014 249.446 177.037 C251.199 177.043 252.952 177.049 254.704 177.053 C257.112 177.06 259.52 177.073 261.927 177.089 C262.999 177.091 262.999 177.091 264.092 177.092 C268.948 177.135 268.948 177.135 270.062 178.25 C270.499 184.936 269.904 191.66 269.25 198.312 C269.162 199.229 269.073 200.145 268.982 201.089 C268.352 207.264 267.419 213.315 266.246 219.406 C264.222 230.255 263.242 241.284 262.062 252.25 C262.791 252.697 263.519 253.143 264.269 253.603 C279.821 263.291 290.84 276.401 296.062 294.25 C296.699 297.42 297.226 300.578 297.668 303.781 C297.935 306.245 297.935 306.245 299.062 308.25 C299.196 311.229 299.273 314.188 299.309 317.168 C299.342 318.998 299.375 320.828 299.408 322.658 C299.455 325.544 299.5 328.429 299.539 331.315 C299.579 334.099 299.631 336.884 299.684 339.668 C299.696 340.95 299.696 340.95 299.709 342.257 C299.812 347.268 300.31 351.533 302.062 356.25 C304.227 357.924 304.227 357.924 306.875 358.812 C315.146 362.028 317.879 368.457 321.312 376.156 C321.807 377.301 322.302 378.446 322.812 379.625 C323.336 380.825 323.86 382.024 324.399 383.26 C335.2 408.164 343.655 433.62 349.062 460.25 C349.232 461.057 349.402 461.865 349.577 462.696 C351.902 474.124 352.356 485.5 352.375 497.125 C352.378 497.82 352.382 498.516 352.386 499.232 C352.422 512.461 351.293 525.133 346.938 537.688 C346.479 539.025 346.479 539.025 346.011 540.39 C341.491 553.136 335.745 563.624 326.062 573.25 C325.279 574.116 324.495 574.982 323.688 575.875 C316.981 581.942 309.812 586.64 301.688 590.562 C301.029 590.888 300.371 591.213 299.692 591.548 C288.97 596.518 277.894 597.791 266.188 597.688 C264.957 597.678 263.727 597.669 262.46 597.66 C246.053 597.348 230.787 592.4 217.062 583.25 C217.318 584.233 217.318 584.233 217.578 585.237 C217.82 586.17 218.063 587.104 218.312 588.066 C218.724 589.653 218.724 589.653 219.144 591.271 C219.768 593.678 220.392 596.085 221.014 598.492 C222.669 604.893 224.335 611.289 226.027 617.68 C230.918 636.239 235.218 654.891 239.278 673.648 C239.923 676.611 240.587 679.568 241.262 682.523 C241.847 685.249 242.253 687.745 242.5 690.5 C242.979 695.486 244.2 700.244 245.371 705.105 C246.095 708.397 246.525 711.599 246.754 714.957 C247.049 717.497 247.049 717.497 248.006 720.885 C249.053 725.026 249.72 729.149 250.281 733.379 C250.385 734.131 250.488 734.883 250.595 735.658 C250.921 738.042 251.242 740.427 251.562 742.812 C251.777 744.384 251.992 745.954 252.207 747.525 C252.832 752.099 253.449 756.674 254.062 761.25 C254.159 761.973 254.256 762.695 254.356 763.44 C254.928 767.709 255.498 771.979 256.062 776.25 C256.176 777.086 256.29 777.922 256.407 778.783 C257.395 787.026 257.062 794.772 257.062 803.25 C108.562 803.25 -39.938 803.25 -192.938 803.25 C-192.329 787.437 -191.724 771.917 -189.938 756.25 C-189.722 754.355 -189.722 754.355 -189.503 752.421 C-187.86 738.052 -186.191 723.7 -183.656 709.457 C-182.611 703.527 -181.826 697.556 -181.027 691.589 C-180.49 687.68 -179.88 683.845 -178.973 680.004 C-178.103 676.271 -177.537 672.552 -177.027 668.754 C-175.991 661.222 -174.522 653.818 -172.961 646.382 C-172.5 644.187 -172.045 641.991 -171.592 639.795 C-169.82 631.252 -167.943 622.741 -165.938 614.25 C-166.925 614.749 -166.925 614.749 -167.933 615.258 C-186.542 624.482 -207.76 628.127 -227.878 621.647 C-249.529 613.851 -266.334 598.602 -276.25 577.812 C-279.45 570.825 -282.157 563.741 -283.938 556.25 C-284.112 555.563 -284.286 554.876 -284.466 554.168 C-286.653 544.256 -286.377 534.098 -286.375 524 C-286.376 523.004 -286.377 522.008 -286.378 520.982 C-286.351 503.251 -284.795 486.585 -280.938 469.25 C-280.692 468.139 -280.446 467.027 -280.192 465.882 C-276.754 450.713 -272.515 435.776 -266.938 421.25 C-266.608 420.39 -266.278 419.53 -265.939 418.644 C-240.489 352.74 -240.489 352.74 -222.938 342.25 C-220.895 342.309 -220.895 342.309 -218.75 342.688 C-215.412 342.807 -214.288 342.548 -211.703 340.352 C-210.199 338.618 -208.726 336.857 -207.281 335.074 C-204.865 332.162 -202.306 329.661 -199.5 327.125 C-198.676 326.38 -197.853 325.635 -197.004 324.867 C-194.938 323.25 -194.938 323.25 -192.938 323.25 C-192.779 321.989 -192.62 320.729 -192.457 319.43 C-188.209 287.005 -180.879 252.457 -153.457 231.34 C-135.676 218.67 -135.676 218.67 -125.938 220.25 C-123.366 221.366 -121.286 222.685 -118.938 224.25 C-120.918 219.96 -122.898 215.67 -124.938 211.25 C-126.542 211.296 -128.147 211.343 -129.801 211.391 C-131.951 211.428 -134.1 211.465 -136.25 211.5 C-137.303 211.534 -138.355 211.567 -139.439 211.602 C-150.271 211.735 -160.05 208.968 -167.969 201.277 C-175.164 193.678 -177.571 187.644 -177.293 177.152 C-176.399 169.85 -172.031 164.343 -166.938 159.25 C-167.411 158.8 -167.884 158.35 -168.371 157.887 C-184.782 141.923 -201.865 119.323 -202.318 95.349 C-202.299 86.912 -201.902 79.894 -197.938 72.25 C-197.525 71.403 -197.113 70.556 -196.688 69.684 C-190.324 57.842 -180.427 51.413 -167.938 47.25 C-165.365 47.18 -162.821 47.156 -160.25 47.188 C-159.197 47.194 -159.197 47.194 -158.123 47.201 C-156.394 47.213 -154.666 47.231 -152.938 47.25 C-153.061 46.012 -153.185 44.775 -153.312 43.5 C-153.287 35.337 -148.872 27.942 -143.438 22.062 C-133.101 12.644 -120.94 6.973 -107.938 2.25 C-107.14 1.959 -106.342 1.668 -105.52 1.368 C-72.683 -10.444 -30.687 -23.738 0 0 Z " fill="#101112" transform="translate(472.9375,220.75)"/>
<path d="M0 0 C5.117 0.01 10.235 0.015 15.352 0.02 C25.28 0.03 35.207 0.047 45.134 0.069 C43.082 21.525 43.082 21.525 41.626 30.553 C41.496 31.39 41.365 32.228 41.231 33.09 C40.829 35.667 40.419 38.243 40.009 40.819 C39.728 42.606 39.448 44.394 39.169 46.182 C38.496 50.478 37.817 54.774 37.134 59.069 C32.939 58.48 28.791 57.813 24.634 57.006 C14.78 55.372 4.201 54.279 -4.866 59.069 C-7.156 61.006 -8.535 62.406 -9.866 65.069 C-10.02 68.599 -9.908 71.684 -8.866 75.069 C-9.794 75.667 -10.723 76.265 -11.679 76.881 C-16.151 79.674 -16.151 79.674 -18.3 84.155 C-18.307 88.375 -18.238 90.499 -15.866 94.131 C-15.206 94.771 -14.546 95.41 -13.866 96.069 C-14.196 96.687 -14.526 97.306 -14.866 97.944 C-16.279 102.357 -16.627 106.482 -15.866 111.069 C-13.676 113.893 -12.036 115.484 -8.866 117.069 C-3.838 117.218 -3.838 117.218 1.192 117.235 C3.313 117.299 3.313 117.299 7.134 118.069 C9.38 120.881 9.38 120.881 11.134 124.069 C13.181 126.153 13.181 126.153 15.321 127.881 C16.016 128.465 16.711 129.049 17.427 129.651 C17.99 130.119 18.553 130.587 19.134 131.069 C20.134 132.069 20.134 132.069 20.299 135.701 C20.219 142.494 19.308 149.208 18.489 155.944 C18.317 157.395 18.144 158.847 17.973 160.299 C17.52 164.117 17.061 167.934 16.6 171.752 C16.143 175.547 15.692 179.343 15.241 183.139 C13.939 194.076 12.627 205.011 11.299 215.945 C9.55 230.371 7.924 244.807 6.384 259.256 C6.258 260.433 6.133 261.611 6.003 262.824 C-0.283 321.85 -5.827 380.923 -10.866 440.069 C-11.893 440.074 -11.893 440.074 -12.94 440.079 C-35.29 440.188 -57.641 440.311 -79.991 440.444 C-81.278 440.451 -81.278 440.451 -82.591 440.459 C-127.878 440.728 -173.151 441.123 -218.429 442.131 C-219.962 442.165 -219.962 442.165 -221.527 442.2 C-223.569 442.246 -225.611 442.291 -227.653 442.337 C-232.551 442.445 -237.449 442.553 -242.347 442.659 C-243.274 442.679 -244.2 442.699 -245.155 442.719 C-272.057 443.292 -298.96 443.286 -325.866 443.069 C-325.911 441.798 -325.956 440.527 -326.002 439.218 C-326.879 414.79 -328.043 390.472 -330.329 366.135 C-331.15 357.234 -331.684 348.312 -332.22 339.39 C-332.291 338.235 -332.363 337.079 -332.437 335.889 C-332.496 334.881 -332.556 333.873 -332.617 332.835 C-332.806 330.127 -332.806 330.127 -333.356 327.744 C-333.885 324.972 -334.114 322.308 -334.278 319.491 C-334.382 317.83 -334.382 317.83 -334.487 316.134 C-334.561 314.93 -334.634 313.727 -334.71 312.487 C-335.795 295.843 -337.434 279.268 -339.132 262.677 C-339.447 259.593 -339.757 256.508 -340.068 253.423 C-342.073 233.504 -344.191 213.604 -346.555 193.724 C-348.026 181.345 -349.439 168.962 -350.79 156.57 C-351.678 148.517 -352.72 140.49 -353.807 132.461 C-354.842 124.654 -355.587 116.833 -356.22 108.983 C-356.291 108.12 -356.363 107.256 -356.437 106.366 C-356.496 105.606 -356.556 104.846 -356.617 104.064 C-356.826 101.864 -356.826 101.864 -357.866 99.069 C-359.842 99.417 -359.842 99.417 -361.866 100.069 C-363.329 102.994 -363.015 105.592 -363.034 108.858 C-363.041 109.888 -363.041 109.888 -363.047 110.939 C-363.057 113.19 -363.057 115.442 -363.054 117.694 C-363.054 118.462 -363.053 119.231 -363.053 120.023 C-363.023 138.543 -361.536 156.706 -358.832 175.031 C-358.237 179.077 -357.679 182.964 -357.866 187.069 C-375.832 185.545 -392.801 181.388 -408.866 173.069 C-408.198 169.369 -407.216 165.892 -406.054 162.319 C-402.33 150.326 -399.726 138.186 -397.817 125.781 C-396.96 120.257 -396.96 120.257 -395.866 118.069 C-395.618 116.113 -395.393 114.154 -395.179 112.194 C-392.48 92.966 -385.688 73.873 -372.866 59.069 C-372.124 58.058 -371.381 57.047 -370.616 56.006 C-365.325 49.716 -357.241 44.608 -349.866 41.069 C-346.929 40.819 -346.929 40.819 -344.866 41.069 C-346.446 44.995 -349.008 47.312 -352.054 50.194 C-360.979 58.881 -370.274 70.405 -371.866 83.069 C-369.507 83.07 -369.507 83.07 -366.866 82.069 C-365.184 79.905 -363.849 77.92 -362.491 75.569 C-361.705 74.282 -360.916 72.996 -360.124 71.713 C-359.74 71.086 -359.356 70.459 -358.961 69.813 C-352.426 59.399 -342.932 48.699 -331.866 43.069 C-328.927 42.545 -326.863 42.68 -323.866 43.069 C-324.437 46.527 -325.491 47.997 -328.112 50.284 C-328.78 50.881 -329.448 51.478 -330.137 52.094 C-330.852 52.725 -331.567 53.356 -332.304 54.006 C-341.532 62.392 -354.284 74.019 -355.866 87.069 C-349.804 85.785 -347.899 83.019 -344.679 78.131 C-336.366 66.216 -326.868 56.087 -312.866 51.069 C-310.054 50.944 -310.054 50.944 -307.866 51.069 C-307.866 55.069 -307.866 55.069 -310.464 57.838 C-311.61 58.863 -312.765 59.877 -313.929 60.881 C-315.134 61.96 -316.338 63.039 -317.542 64.119 C-318.122 64.633 -318.701 65.147 -319.298 65.677 C-324.329 70.143 -328.23 74.577 -332.054 80.131 C-336.082 85.692 -339.918 88.205 -346.265 90.69 C-349.37 92.336 -350.339 93.957 -351.866 97.069 C-350.952 96.826 -350.038 96.584 -349.097 96.334 C-327.618 90.853 -305.685 88.566 -283.597 87.302 C-280.88 87.12 -280.88 87.12 -278.3 86.561 C-273.906 85.931 -269.622 85.937 -265.189 85.955 C-263.754 85.955 -263.754 85.955 -262.29 85.955 C-259.141 85.955 -255.992 85.963 -252.843 85.971 C-250.654 85.973 -248.466 85.974 -246.277 85.975 C-240.526 85.979 -234.776 85.989 -229.025 86 C-223.153 86.01 -217.281 86.015 -211.409 86.02 C-199.895 86.031 -188.381 86.048 -176.866 86.069 C-176.666 85.148 -176.666 85.148 -176.462 84.209 C-176.285 83.402 -176.108 82.594 -175.926 81.763 C-175.751 80.963 -175.577 80.164 -175.397 79.34 C-174.749 76.566 -173.892 73.908 -172.948 71.221 C-170.96 65.404 -169.207 59.551 -167.554 53.631 C-167.257 52.584 -166.961 51.538 -166.656 50.459 C-164.958 44.359 -163.419 38.245 -162.034 32.069 C-161.808 31.073 -161.808 31.073 -161.577 30.058 C-160.838 26.806 -160.121 23.553 -159.439 20.288 C-159.175 19.113 -158.912 17.939 -158.64 16.729 C-158.417 15.683 -158.195 14.638 -157.965 13.561 C-156.866 11.069 -156.866 11.069 -154.542 9.764 C-152.108 9.131 -149.768 8.621 -147.276 8.287 C-146.418 8.169 -145.559 8.05 -144.675 7.928 C-143.768 7.809 -142.862 7.691 -141.929 7.569 C-140.015 7.31 -138.101 7.051 -136.187 6.791 C-135.263 6.668 -134.339 6.544 -133.387 6.417 C-130.35 5.997 -127.329 5.498 -124.304 5.006 C-115.826 3.775 -107.269 3.32 -98.725 2.766 C-97.556 2.689 -96.387 2.612 -95.183 2.534 C-94.135 2.468 -93.088 2.402 -92.009 2.334 C-89.875 2.154 -87.746 1.897 -85.629 1.572 C-81.899 1.073 -78.279 0.863 -74.518 0.754 C-73.813 0.734 -73.108 0.713 -72.381 0.692 C-70.04 0.626 -67.699 0.567 -65.358 0.51 C-64.538 0.489 -63.717 0.468 -62.872 0.446 C-41.916 -0.081 -20.961 -0.048 0 0 Z " fill="#FEFEFE" transform="translate(687.8662719726563,408.93133544921875)"/>
<path d="M0 0 C22.057 37.523 44.11 83.17 44.24 127.556 C44.25 129.533 44.281 131.51 44.312 133.486 C44.359 144.978 42.821 155.768 37.5 166.062 C37.162 166.728 36.824 167.394 36.475 168.079 C32.732 175.064 27.757 180.583 22 186 C21.178 186.864 20.356 187.728 19.51 188.617 C15.203 192.156 10.485 191.709 5.137 191.672 C4.073 191.685 3.008 191.697 1.912 191.711 C-1.497 191.747 -4.904 191.75 -8.312 191.75 C-11.638 191.772 -14.964 191.801 -18.289 191.831 C-20.507 191.85 -22.726 191.864 -24.944 191.872 C-30.63 191.904 -36.287 192.039 -41.965 192.355 C-43.654 192.446 -43.654 192.446 -45.377 192.538 C-47.509 192.66 -49.641 192.798 -51.771 192.954 C-61.082 193.482 -66.755 191.026 -74 185 C-75.514 183.743 -75.514 183.743 -77.059 182.461 C-79.45 180.372 -81.75 178.239 -84 176 C-83.517 174.89 -83.517 174.89 -83.023 173.758 C-81.559 169.812 -81.593 167.202 -82 163 C-84.203 160.736 -85.498 160.05 -88.656 159.734 C-89.595 159.74 -90.533 159.745 -91.5 159.75 C-94.453 159.543 -94.453 159.543 -97 159 C-99.25 156.062 -99.25 156.062 -100.059 154.137 C-101.178 151.596 -102.658 149.604 -104.312 147.375 C-108.468 141.546 -111.724 135.353 -115 129 C-116.856 128.969 -116.856 128.969 -118.75 128.938 C-119.446 128.926 -120.142 128.914 -120.859 128.902 C-122.969 128.923 -122.969 128.923 -124.824 129.484 C-134.131 131.69 -144.629 130.548 -153 126 C-158.705 122.193 -162.978 117.65 -165 111 C-165.87 105.687 -164.994 101.491 -162 97 C-159.252 93.916 -157.688 92.32 -153.633 91.551 C-147.811 91.294 -143.537 92.31 -139 96 C-137.922 97.089 -136.859 98.193 -135.812 99.312 C-134.42 100.643 -134.42 100.643 -133 102 C-130.849 101.745 -130.849 101.745 -129 101 C-129.493 91.462 -132.881 83.114 -136.512 74.352 C-137.217 72.631 -137.217 72.631 -137.938 70.875 C-138.38 69.841 -138.822 68.807 -139.277 67.742 C-140 65 -140 65 -139.305 62.855 C-137.992 60.989 -136.633 59.203 -135.188 57.438 C-127.967 47.839 -125.791 37.603 -124 26 C-120.265 26.467 -116.866 27.037 -113.227 28.047 C-108.289 29.325 -103.45 29.301 -98.375 29.25 C-97.402 29.243 -96.429 29.236 -95.427 29.229 C-82.85 29.05 -71.097 26.758 -58.989 23.528 C-57.056 23.015 -55.118 22.521 -53.18 22.027 C-35.489 17.466 -18.517 11.858 -3.602 1.031 C-2 0 -2 0 0 0 Z " fill="#FEFEFE" transform="translate(469,294)"/>
<path d="M0 0 C1.287 0.008 1.287 0.008 2.6 0.017 C18.746 0.324 34.258 6.168 46.062 17.312 C46.77 17.979 47.478 18.645 48.207 19.332 C62.829 34.402 66.067 55.32 66.309 75.457 C66.342 77.37 66.375 79.284 66.408 81.197 C66.455 84.159 66.5 87.121 66.539 90.082 C66.679 100.104 66.844 109.852 68.637 119.733 C69.174 122.991 69.216 126.022 69.062 129.312 C55.447 136.351 43.211 142.467 27.625 142.562 C26.792 142.583 25.958 142.604 25.1 142.625 C19.968 142.657 16.551 142.086 12.062 139.312 C12.745 129.082 13.859 118.93 15.062 108.75 C16.219 98.945 17.308 89.158 18.062 79.312 C18.154 78.311 18.245 77.309 18.338 76.277 C18.672 72.233 18.782 69.45 16.57 65.953 C14.818 63.961 12.976 62.148 11.062 60.312 C10.403 59.322 9.742 58.332 9.062 57.312 C16.287 58.795 22.062 64.311 26.062 70.312 C28.122 71.036 28.122 71.036 30.062 71.312 C30.594 68.273 30.503 66.111 28.996 63.379 C22.965 55.625 12.386 50.32 2.758 48.562 C0.371 48.341 -1.988 48.216 -4.383 48.125 C-5.191 48.092 -5.999 48.059 -6.831 48.025 C-8.464 47.967 -10.098 47.931 -11.731 47.917 C-17.468 47.754 -17.468 47.754 -19.969 45.402 C-20.938 43.312 -20.938 43.312 -21.062 41.25 C-19.627 38.777 -17.995 37.84 -15.344 36.852 C-3.604 34.222 9.546 36.571 19.824 42.715 C24.996 46.406 29.577 50.827 34.062 55.312 C36.646 55.479 36.646 55.479 39.062 55.312 C38.568 49.703 35.427 46.46 31.445 42.844 C22.676 35.768 12.052 30.276 0.684 30.137 C-0.32 30.113 -1.323 30.089 -2.357 30.064 C-4.456 30.021 -6.555 29.99 -8.654 29.971 C-9.657 29.943 -10.659 29.915 -11.691 29.887 C-12.602 29.872 -13.513 29.858 -14.451 29.843 C-17.671 29.156 -18.906 27.85 -20.938 25.312 C-21 23.25 -21 23.25 -19.938 21.312 C-15.273 17.446 -10.334 17.774 -4.562 17.812 C-3.582 17.818 -2.602 17.824 -1.593 17.83 C11.773 18.155 25.088 22.333 34.745 31.996 C37.13 34.516 39.47 37.063 41.737 39.689 C43.124 41.28 44.588 42.802 46.062 44.312 C47.053 44.312 48.043 44.312 49.062 44.312 C48.708 38.521 47.107 35.364 43.125 31.312 C42.63 30.795 42.135 30.277 41.625 29.744 C29.081 16.96 13.664 11.153 -4.021 10.834 C-9.464 10.635 -9.464 10.635 -11.957 8.938 C-12.938 7.312 -12.938 7.312 -12.812 4.75 C-10.713 -1.098 -5.175 -0.035 0 0 Z " fill="#FEFEFE" transform="translate(697.9375,471.6875)"/>
<path d="M0 0 C2.798 -0.003 5.596 -0.007 8.394 -0.012 C17.179 -0.025 25.963 -0.035 34.748 -0.039 C44.84 -0.043 54.933 -0.061 65.025 -0.09 C72.877 -0.111 80.729 -0.121 88.581 -0.123 C93.253 -0.124 97.924 -0.13 102.596 -0.148 C106.969 -0.164 111.341 -0.166 115.714 -0.157 C117.316 -0.157 118.919 -0.161 120.521 -0.171 C122.708 -0.184 124.894 -0.178 127.08 -0.167 C128.303 -0.169 129.526 -0.17 130.785 -0.172 C135.282 0.349 137.842 2.044 140.999 5.2 C141.499 7.513 141.499 7.513 140.999 10.2 C135.19 16.009 130.989 16.347 123.11 16.379 C121.91 16.389 121.91 16.389 120.685 16.4 C118.001 16.422 115.316 16.438 112.632 16.453 C110.708 16.468 108.785 16.482 106.861 16.498 C101.634 16.538 96.407 16.571 91.18 16.602 C87.915 16.622 84.651 16.643 81.386 16.664 C71.176 16.73 60.965 16.792 50.755 16.848 C38.961 16.913 27.168 16.991 15.375 17.081 C6.262 17.149 -2.851 17.206 -11.963 17.254 C-17.408 17.283 -22.852 17.317 -28.297 17.363 C-33.416 17.406 -38.535 17.434 -43.654 17.451 C-45.534 17.46 -47.414 17.474 -49.294 17.494 C-51.858 17.52 -54.422 17.527 -56.986 17.53 C-57.732 17.542 -58.477 17.554 -59.245 17.566 C-64.893 17.541 -68.051 16.151 -72.001 12.2 C-71.776 6.001 -71.776 6.001 -69.189 3.325 C-63.86 0.585 -58.103 0.864 -52.237 0.65 C-50.535 0.587 -50.535 0.587 -48.798 0.523 C-32.538 -0.015 -16.268 0.016 0 0 Z " fill="#101112" transform="translate(516.0014593601227,550.7998113632202)"/>
<path d="M0 0 C1.738 -0.006 3.475 -0.013 5.213 -0.02 C10.865 -0.041 16.516 -0.051 22.168 -0.061 C24.122 -0.065 26.076 -0.069 28.03 -0.074 C37.199 -0.093 46.367 -0.107 55.535 -0.115 C66.101 -0.125 76.667 -0.151 87.234 -0.192 C95.421 -0.222 103.608 -0.237 111.795 -0.24 C116.678 -0.242 121.561 -0.251 126.444 -0.276 C131.028 -0.3 135.611 -0.304 140.195 -0.294 C141.876 -0.293 143.558 -0.3 145.239 -0.313 C147.534 -0.331 149.827 -0.324 152.122 -0.311 C154.048 -0.314 154.048 -0.314 156.012 -0.318 C159.946 0.264 161.614 1.338 164.355 4.177 C165.02 7.722 164.863 9.382 162.918 12.427 C154.753 18.003 143.016 16.506 133.522 16.543 C131.716 16.558 129.91 16.573 128.104 16.589 C123.221 16.628 118.337 16.656 113.453 16.681 C109.372 16.702 105.291 16.729 101.21 16.756 C91.586 16.82 81.962 16.873 72.338 16.92 C62.41 16.968 52.483 17.035 42.555 17.111 C34.024 17.175 25.493 17.228 16.962 17.272 C11.87 17.298 6.777 17.328 1.685 17.37 C-3.099 17.409 -7.882 17.433 -12.666 17.447 C-14.421 17.454 -16.177 17.466 -17.933 17.484 C-20.328 17.508 -22.723 17.513 -25.118 17.513 C-25.814 17.525 -26.509 17.536 -27.225 17.547 C-31.528 17.523 -34.218 16.804 -37.645 14.177 C-39.082 11.302 -39.026 9.358 -38.645 6.177 C-29.603 -2.865 -12.015 0.019 0 0 Z " fill="#101112" transform="translate(487.64453125,639.822998046875)"/>
<path d="M0 0 C1.093 -0.004 1.093 -0.004 2.207 -0.009 C4.637 -0.018 7.067 -0.019 9.496 -0.021 C11.243 -0.025 12.989 -0.03 14.736 -0.036 C19.471 -0.049 24.206 -0.055 28.942 -0.06 C31.9 -0.063 34.859 -0.067 37.818 -0.071 C47.075 -0.085 56.333 -0.095 65.591 -0.098 C76.278 -0.103 86.964 -0.121 97.65 -0.149 C105.913 -0.171 114.177 -0.181 122.44 -0.182 C127.375 -0.184 132.31 -0.189 137.244 -0.207 C141.883 -0.224 146.521 -0.226 151.159 -0.217 C152.862 -0.216 154.564 -0.221 156.266 -0.231 C158.59 -0.243 160.913 -0.237 163.236 -0.227 C164.536 -0.229 165.837 -0.23 167.176 -0.231 C171.088 0.199 173.754 1.339 176.555 4.14 C177.017 9.459 177.017 9.459 175.367 11.89 C170.567 15.201 165.712 15.535 160.029 15.737 C159.127 15.774 158.226 15.811 157.298 15.849 C141.864 16.418 126.411 16.466 110.969 16.597 C109.225 16.613 107.481 16.628 105.738 16.643 C98.492 16.706 91.246 16.767 83.999 16.821 C73.68 16.898 63.361 16.99 53.042 17.1 C45.74 17.177 38.438 17.238 31.135 17.288 C26.79 17.319 22.444 17.355 18.099 17.409 C14.026 17.458 9.953 17.489 5.88 17.505 C4.39 17.514 2.899 17.53 1.409 17.553 C-12.864 17.771 -12.864 17.771 -18.445 13.14 C-19.758 9.703 -19.758 9.703 -19.445 6.14 C-13.901 -0.08 -8.085 0.018 0 0 Z " fill="#101112" transform="translate(472.44544982910156,729.8595581054688)"/>
<path d="M0 0 C2.367 0.332 2.367 0.332 4.117 1.645 C9.695 9.175 7.609 24.005 7.68 32.895 C7.709 34.151 7.738 35.407 7.768 36.701 C7.776 37.901 7.784 39.1 7.793 40.336 C7.808 41.417 7.822 42.498 7.837 43.612 C7.367 46.332 7.367 46.332 5.528 48.144 C-0.104 51.24 -6.082 50.555 -12.347 50.572 C-14.428 50.582 -16.507 50.613 -18.588 50.645 C-19.922 50.651 -21.256 50.656 -22.59 50.66 C-23.796 50.67 -25.002 50.679 -26.245 50.688 C-30.058 50.287 -32.41 49.392 -35.633 47.332 C-40.038 41.474 -40.811 33.311 -41.883 26.27 C-42.056 25.232 -42.228 24.195 -42.406 23.127 C-43.312 17.456 -43.826 12.073 -43.633 6.332 C-41.983 6.002 -40.333 5.672 -38.633 5.332 C-35.957 8.495 -34.778 11.449 -33.57 15.395 C-32.506 18.851 -31.651 21.304 -29.633 24.332 C-27.354 25.171 -27.354 25.171 -24.633 24.332 C-22.007 22.264 -19.843 19.832 -17.633 17.332 C-17.064 16.695 -16.496 16.058 -15.91 15.402 C-13.422 12.58 -10.967 9.742 -8.59 6.824 C-7.903 6.002 -7.216 5.179 -6.508 4.332 C-5.886 3.569 -5.265 2.806 -4.625 2.02 C-2.633 0.332 -2.633 0.332 0 0 Z " fill="#1B1B1C" transform="translate(425.6328125,533.66796875)"/>
<path d="M0 0 C2.75 0.75 2.75 0.75 4.562 2.562 C7.009 7.069 6.927 11.255 6.953 16.25 C6.959 17.082 6.965 17.914 6.97 18.771 C6.98 20.53 6.986 22.288 6.99 24.047 C7 26.74 7.031 29.432 7.062 32.125 C7.069 33.833 7.074 35.542 7.078 37.25 C7.09 38.056 7.103 38.863 7.116 39.693 C7.093 45.339 7.093 45.339 5.353 47.424 C0.619 51.34 -6.773 50.056 -12.653 50.1 C-14.254 50.117 -15.855 50.144 -17.456 50.182 C-19.769 50.237 -22.081 50.259 -24.395 50.273 C-25.106 50.296 -25.818 50.319 -26.551 50.342 C-30.368 50.326 -32.089 49.875 -35.134 47.508 C-40.196 40.91 -40.866 32.114 -41.938 24.062 C-42.067 23.165 -42.197 22.267 -42.33 21.342 C-43.01 16.428 -43.392 11.71 -43.25 6.75 C-40.938 6.062 -40.938 6.062 -38.25 5.75 C-34.07 8.72 -33.152 14.105 -31.531 18.719 C-30.367 21.473 -29.531 22.894 -27.25 24.75 C-24.354 23.45 -22.398 22.115 -20.262 19.773 C-19.724 19.188 -19.186 18.603 -18.631 18 C-18.072 17.382 -17.513 16.763 -16.938 16.125 C-16.359 15.497 -15.78 14.869 -15.183 14.222 C-12.1 10.862 -9.167 7.433 -6.312 3.875 C-4.037 1.244 -3.546 0.818 0 0 Z " fill="#101112" transform="translate(436.25,711.25)"/>
<path d="M0 0 C7.224 7.482 5.225 22.271 5.312 31.938 C5.342 33.034 5.371 34.13 5.4 35.26 C5.409 36.317 5.417 37.375 5.426 38.465 C5.44 39.41 5.455 40.354 5.47 41.328 C4.826 44.991 3.786 46.53 1 49 C-1.894 49.521 -4.196 49.726 -7.09 49.699 C-7.871 49.706 -8.653 49.714 -9.458 49.721 C-11.108 49.729 -12.758 49.724 -14.408 49.707 C-16.927 49.688 -19.44 49.727 -21.959 49.771 C-23.565 49.772 -25.171 49.769 -26.777 49.762 C-27.901 49.785 -27.901 49.785 -29.047 49.808 C-31.938 49.744 -34.285 49.578 -36.583 47.719 C-39.514 44.327 -40.831 41.231 -41.688 36.875 C-41.914 35.739 -42.141 34.604 -42.375 33.434 C-42.581 32.301 -42.788 31.167 -43 30 C-43.206 28.98 -43.413 27.961 -43.625 26.91 C-44.953 19.891 -45.228 13.133 -45 6 C-43.35 5.67 -41.7 5.34 -40 5 C-36.884 9.805 -35.212 14.838 -33.379 20.234 C-32.295 23.101 -32.295 23.101 -30.008 24 C-27.196 24 -25.789 22.681 -23.762 20.848 C-20.735 17.673 -18.053 14.219 -15.305 10.805 C-13.188 8.228 -11.038 5.738 -8.75 3.312 C-8.147 2.669 -7.543 2.026 -6.922 1.363 C-4.445 -0.394 -2.975 -0.401 0 0 Z " fill="#101112" transform="translate(433,622)"/>
<path d="M0 0 C1.98 0 3.96 0 6 0 C6.344 16.604 6.677 33.208 7 49.812 C7.024 51.033 7.048 52.253 7.072 53.511 C7.799 91.013 8.32 128.491 8 166 C5.36 166 2.72 166 0 166 C0 111.22 0 56.44 0 0 Z " fill="#FEFEFE" transform="translate(509,858)"/>
<path d="M0 0 C2.813 1.295 4.458 2.417 6.812 4.562 C26.847 21.934 56.174 30.13 82 33 C82 36.96 82 40.92 82 45 C70.112 45.626 58.311 42.432 47 39 C46.036 38.716 46.036 38.716 45.052 38.427 C26.218 32.83 8.798 24.323 -5 10 C-3.844 6.088 -2.645 3.125 0 0 Z " fill="#FEFEFE" transform="translate(250,573)"/>
<path d="M0 0 C4.496 1.156 6.591 3.311 9.043 7.078 C10.658 10.321 10.622 12.453 10 16 C6.892 24.749 -1.94 29.957 -9.887 33.948 C-13.86 35.799 -17.91 37.425 -22 39 C-22.82 39.349 -23.64 39.699 -24.484 40.059 C-38.392 45.263 -53.424 44.313 -68 44 C-68 40.7 -68 37.4 -68 34 C-66.863 34.063 -66.863 34.063 -65.703 34.127 C-42.313 35.242 -20.724 32.405 -2 17 C1.385 13.316 1.385 13.316 2.375 8.5 C2.027 5.257 1.414 2.917 0 0 Z " fill="#FEFEFE" transform="translate(776,588)"/>
<path d="M0 0 C2.838 0.248 4.472 0.422 6.431 2.565 C6.812 3.249 7.193 3.932 7.586 4.637 C8.035 5.427 8.484 6.218 8.946 7.032 C9.418 7.908 9.889 8.785 10.375 9.688 C10.877 10.599 11.38 11.511 11.897 12.45 C13.624 15.62 15.314 18.808 17 22 C17.672 23.258 18.345 24.516 19.019 25.773 C20.78 29.074 22.513 32.388 24.227 35.712 C24.903 37.018 25.586 38.321 26.274 39.62 C33.744 53.774 33.744 53.774 32 62 C30.204 64.934 29.056 66.472 26 68 C21.058 68.414 16.489 68.555 11.812 66.812 C10 65 10 65 9.688 62.312 C9.791 61.549 9.894 60.786 10 60 C14.75 58.875 14.75 58.875 17 60 C19 60.04 21 60.043 23 60 C23.28 55.361 22.639 52.583 20.438 48.508 C19.892 47.48 19.346 46.453 18.783 45.394 C18.195 44.315 17.606 43.237 17 42.125 C15.802 39.879 14.606 37.633 13.41 35.387 C12.825 34.295 12.24 33.204 11.637 32.08 C9.503 28.065 7.453 24.013 5.438 19.938 C4.859 18.771 4.28 17.604 3.684 16.402 C3.128 15.28 2.572 14.157 2 13 C1.625 12.318 1.25 11.636 0.864 10.934 C0.487 10.235 0.111 9.536 -0.277 8.816 C-0.629 8.183 -0.981 7.549 -1.344 6.897 C-2.16 4.537 -1.851 3.315 -1 1 C-0.67 0.67 -0.34 0.34 0 0 Z " fill="#1B1B1C" transform="translate(422,359)"/>
<path d="M0 0 C1.666 -0.043 3.334 -0.041 5 0 C5.495 0.495 5.495 0.495 6 1 C5.863 7.577 3.19 12.021 -1 17 C-7.666 23.221 -14.908 26.578 -24.125 26.5 C-25.227 26.497 -25.227 26.497 -26.352 26.494 C-33.923 26.279 -42.484 24.516 -48 19 C-48.125 16.375 -48.125 16.375 -48 14 C-45.812 13.312 -45.812 13.312 -43 13 C-41.31 13.959 -39.646 14.966 -38 16 C-28.989 18.952 -20.006 19.328 -11.227 15.398 C-5.631 11.884 -2.647 5.881 0 0 Z " fill="#1B1B1C" transform="translate(471,425)"/>
<path d="M0 0 C2.625 1.625 2.625 1.625 4.625 3.625 C4.938 6.125 4.938 6.125 4.625 8.625 C1.378 10.79 -0.575 11.101 -4.375 11.75 C-10.898 13.135 -14.994 15.802 -20.035 20.078 C-22.375 21.625 -22.375 21.625 -24.621 21.422 C-26.375 20.625 -26.375 20.625 -27.375 19.625 C-28.025 15.794 -28.151 12.176 -26.387 8.648 C-19.994 0.473 -9.889 -4.029 0 0 Z " fill="#1B1B1C" transform="translate(396.375,341.375)"/>
<path d="M0 0 C5.311 3.069 5.311 3.069 6.336 6.184 C6.43 6.787 6.524 7.39 6.621 8.012 C3.324 10.967 0.917 11.402 -3.441 11.762 C-9.874 12.58 -13.897 14.79 -19.039 18.648 C-21.379 20.012 -21.379 20.012 -23.625 19.781 C-25.379 19.012 -25.379 19.012 -26.379 18.012 C-27.169 11.464 -27.169 11.464 -25.32 8.066 C-19.133 0.32 -9.655 -4.011 0 0 Z " fill="#1B1B1C" transform="translate(458.37890625,316.98828125)"/>
<path d="M0 0 C4.525 3.017 7.215 5.744 9 11 C9.6 15.676 9.904 19.539 7.375 23.625 C4.226 25.448 2.586 25.659 -1 25 C-5.305 21.496 -8.656 17.596 -9.398 11.992 C-9.387 10.449 -9.387 10.449 -9.375 8.875 C-9.383 7.841 -9.39 6.807 -9.398 5.742 C-9 3 -9 3 -7.652 1.164 C-4.969 -0.726 -3.197 -0.501 0 0 Z " fill="#1B1B1C" transform="translate(404,384)"/>
<path d="M0 0 C4.565 0.708 5.808 1.962 8.625 5.562 C11.818 10.408 12.542 14.896 11.625 20.562 C10.062 23.625 10.062 23.625 7.625 25.562 C4.188 26.25 4.188 26.25 0.625 25.562 C-3.125 21.896 -6.078 18.189 -6.676 12.906 C-6.68 11.968 -6.684 11.029 -6.688 10.062 C-6.704 9.124 -6.721 8.186 -6.738 7.219 C-6.101 2.563 -4.629 0.772 0 0 Z " fill="#1B1B1C" transform="translate(462.375,362.4375)"/>
<path d="M0 0 C0.66 0 1.32 0 2 0 C3.063 5.173 3.117 10.125 3.062 15.375 C3.042 18.221 3.021 21.067 3 24 C-4.26 24 -11.52 24 -19 24 C-15.183 18.91 -11.391 13.989 -7.25 9.188 C-4.683 6.204 -2.188 3.282 0 0 Z " fill="#F3F3F3" transform="translate(428,640)"/>
<path d="M0 0 C0.66 0 1.32 0 2 0 C2 8.25 2 16.5 2 25 C-4.93 25 -11.86 25 -19 25 C-17.175 21.349 -15.627 19.348 -12.875 16.438 C-8.692 11.903 -5.115 7.139 -1.629 2.055 C-1.091 1.377 -0.554 0.699 0 0 Z " fill="#FEFEFE" transform="translate(434,729)"/>
<path d="M0 0 C0.33 0 0.66 0 1 0 C1.33 7.92 1.66 15.84 2 24 C-4.93 24 -11.86 24 -19 24 C-15.626 18.376 -15.626 18.376 -13.477 15.879 C-13.012 15.336 -12.548 14.792 -12.07 14.232 C-11.593 13.681 -11.116 13.13 -10.625 12.562 C-9.679 11.46 -8.734 10.357 -7.789 9.254 C-7.328 8.719 -6.867 8.184 -6.392 7.633 C-4.975 5.97 -3.593 4.282 -2.211 2.59 C-1.481 1.735 -0.752 0.881 0 0 Z " fill="#FEFEFE" transform="translate(424,552)"/>
<path d="M0 0 C0 0.66 0 1.32 0 2 C0.562 2.246 1.124 2.492 1.703 2.746 C4.405 4.221 6.464 6.004 8.75 8.062 C9.549 8.775 10.348 9.488 11.172 10.223 C11.775 10.809 12.378 11.396 13 12 C13 12.33 13 12.66 13 13 C3.678 14.818 -5.536 15.544 -15 16 C-12.446 10.781 -6.395 0 0 0 Z " fill="#F3F3F3" transform="translate(378,476)"/>
<path d="M0 0 C0.33 1.65 0.66 3.3 1 5 C-0.516 6.238 -0.516 6.238 -2.062 7.5 C-4.796 9.832 -7.176 12.26 -9.5 15 C-16.313 22.946 -16.313 22.946 -20 25 C-22.207 24.652 -22.207 24.652 -24 24 C-23.461 19.957 -21.455 18.068 -18.633 15.234 C-17.747 14.345 -16.862 13.455 -15.949 12.539 C-15.017 11.619 -14.085 10.698 -13.125 9.75 C-12.201 8.814 -11.276 7.878 -10.324 6.914 C-9.436 6.03 -8.548 5.145 -7.633 4.234 C-6.817 3.422 -6.001 2.61 -5.161 1.772 C-3 0 -3 0 0 0 Z " fill="#1B1B1C" transform="translate(773,318)"/>
<path d="M0 0 C0.375 2.25 0.375 2.25 0 5 C-5.137 9.478 -11.635 11.688 -18.375 12.312 C-21 12 -21 12 -24 10 C-23.67 8.35 -23.34 6.7 -23 5 C-22.287 4.89 -21.574 4.781 -20.84 4.668 C-14.312 3.611 -14.312 3.611 -8.125 1.375 C-5.076 0.033 -3.274 -0.298 0 0 Z " fill="#1B1B1C" transform="translate(482,390)"/>
<path d="M0 0 C0.33 1.32 0.66 2.64 1 4 C-4.415 9.077 -9.864 13.705 -17.5 14.25 C-18.325 14.168 -19.15 14.085 -20 14 C-20.33 12.35 -20.66 10.7 -21 9 C-20.096 8.518 -19.193 8.036 -18.262 7.539 C-17.07 6.901 -15.879 6.263 -14.688 5.625 C-14.093 5.308 -13.498 4.991 -12.885 4.664 C-3.805 -0.206 -3.805 -0.206 0 0 Z " fill="#1B1B1C" transform="translate(423,409)"/>
<path d="M0 0 C2 0.312 2 0.312 4 1 C7.538 8.077 6.108 18.327 6 26 C4.062 26.562 4.062 26.562 2 27 C-0.669 24.331 0.156 17.116 -0.125 13.5 C-0.224 12.321 -0.324 11.141 -0.426 9.926 C-0.559 8.245 -0.559 8.245 -0.695 6.531 C-0.778 5.495 -0.861 4.46 -0.946 3.393 C-0.964 2.603 -0.982 1.813 -1 1 C-0.67 0.67 -0.34 0.34 0 0 Z " fill="#2D2C2E" transform="translate(699,310)"/>
<path d="M0 0 C0.33 0 0.66 0 1 0 C1.33 6.6 1.66 13.2 2 20 C2.33 20 2.66 20 3 20 C2.67 43.76 2.34 67.52 2 92 C1.67 92 1.34 92 1 92 C0.828 82.854 0.661 73.708 0.5 64.562 C0.488 63.89 0.476 63.217 0.464 62.525 C0.098 41.682 -0.158 20.846 0 0 Z " fill="#4A494B" transform="translate(516,932)"/>
<path d="M0 0 C0 0.33 0 0.66 0 1 C-1.355 1.038 -1.355 1.038 -2.738 1.076 C-6.08 1.171 -9.421 1.27 -12.762 1.372 C-14.211 1.416 -15.659 1.457 -17.107 1.497 C-19.185 1.555 -21.262 1.619 -23.34 1.684 C-24.591 1.72 -25.843 1.757 -27.133 1.795 C-29.896 1.678 -29.896 1.678 -31 3 C-34.965 3.396 -38.956 3.477 -42.938 3.625 C-44.693 3.693 -44.693 3.693 -46.484 3.761 C-56.049 4.076 -65.469 3.8 -75 3 C-75 2.67 -75 2.34 -75 2 C-49.976 0.575 -25.066 -0.322 0 0 Z " fill="#3E3D3F" transform="translate(690,398)"/>
<path d="M0 0 C0 3 0 3 -1.146 4.439 C-1.671 4.929 -2.197 5.42 -2.738 5.926 C-3.598 6.75 -3.598 6.75 -4.475 7.592 C-5.688 8.728 -6.901 9.863 -8.115 10.998 C-11.664 14.404 -14.064 17.379 -16 22 C-16.66 21.67 -17.32 21.34 -18 21 C-17.434 17.225 -15.877 15.524 -13.184 12.891 C-12.42 12.137 -11.656 11.382 -10.869 10.605 C-10.067 9.828 -9.264 9.051 -8.438 8.25 C-7.631 7.457 -6.825 6.664 -5.994 5.848 C-4.003 3.892 -2.005 1.943 0 0 Z " fill="#2D2C2E" transform="translate(767,321)"/>
<path d="M0 0 C0.99 0.33 1.98 0.66 3 1 C2.288 1.804 2.288 1.804 1.562 2.625 C-0.282 5.428 -0.625 7.696 -1 11 C-3 9 -3 9 -3.312 6.062 C-3 3 -3 3 -1.5 1.125 C-1.005 0.754 -0.51 0.383 0 0 Z " fill="#101112" transform="translate(452,643)"/>
<path d="M0 0 C0.99 0 1.98 0 3 0 C3 1.65 3 3.3 3 5 C1.68 5.33 0.36 5.66 -1 6 C-1.33 5.01 -1.66 4.02 -2 3 C-1.34 3 -0.68 3 0 3 C0 2.01 0 1.02 0 0 Z " fill="#1B1B1C" transform="translate(702,331)"/>
<path d="M0 0 C0.66 0 1.32 0 2 0 C2 3.3 2 6.6 2 10 C1.67 10 1.34 10 1 10 C0.67 8.02 0.34 6.04 0 4 C-0.99 4.66 -1.98 5.32 -3 6 C-1.125 1.125 -1.125 1.125 0 0 Z " fill="#CDCBCC" transform="translate(434,729)"/>
<path d="M0 0 C0.66 0 1.32 0 2 0 C1.691 0.598 1.381 1.196 1.062 1.812 C-0.102 4.09 -0.102 4.09 -1 7 C-1.99 7 -2.98 7 -4 7 C-2.926 4.085 -2.222 2.222 0 0 Z " fill="#2D2C2E" transform="translate(340,499)"/>
</svg>